<svg xmlns="http://www.w3.org/2000/svg" width="200" height="200" viewBox="0 0 200 200">
    <path d="M197.152,53.951h0l-.007-.007-12.909-1.85a3.338,3.338,0,0,1-1.523-5.967l10.434-7.86a3.343,3.343,0,0,0,.664-4.667l-11.947-16a3.309,3.309,0,0,0-4.646-.667l-10.43,7.86a3.309,3.309,0,0,1-4.65-.64,3.344,3.344,0,0,1-.64-2.5l1.845-12.967a3.331,3.331,0,0,0-2.814-3.773h0l-19.7-2.827a3.321,3.321,0,0,0-3.757,2.826h0l-1.845,12.967a3.314,3.314,0,0,1-5.94,1.53l-7.822-10.48a3.309,3.309,0,0,0-4.646-.667l-9.972,7.517a63.928,63.928,0,0,0-13.573,0,63.2,63.2,0,0,0-55.6,56.79c-.09.943-.123,1.88-.169,2.817h-1a3.323,3.323,0,0,0-3.246,2.667L30.969,89.011l-9.186-6.363a3.308,3.308,0,0,0-4.231.387l-9.956,10a3.345,3.345,0,0,0-.385,4.247l6.305,9.21-10.908,2.3A3.33,3.33,0,0,0,0,112.057V125.39a3.33,3.33,0,0,0,2.635,3.263l10.908,2.3-6.305,9.21a3.345,3.345,0,0,0,.385,4.247l9.956,10a3.308,3.308,0,0,0,4.231.387l9.169-6.35,2.293,10.957a3.322,3.322,0,0,0,3.246,2.667H49.792a3.322,3.322,0,0,0,3.249-2.647l2.293-10.957L64.5,154.8a3.308,3.308,0,0,0,4.228-.387l5.154-5.193v9.5a13.3,13.3,0,0,0,6.637,11.48v18.52A13.3,13.3,0,0,0,93.8,202.057h13.274a13.3,13.3,0,0,0,13.274-13.333V170.2a13.3,13.3,0,0,0,6.637-11.48V145.53a16.348,16.348,0,0,1,7.676-13.607,63.717,63.717,0,0,0,7.812-6l-4.427-4.967a56.523,56.523,0,0,1-6.992,5.37,22.982,22.982,0,0,0-10.706,19.2v13.193a6.652,6.652,0,0,1-6.637,6.667H87.16a6.652,6.652,0,0,1-6.637-6.667v-13.47A22.448,22.448,0,0,0,70,126.44,56.524,56.524,0,0,1,99.721,22.108a3.634,3.634,0,0,0-.129.363,3.344,3.344,0,0,0,.634,2.47l7.822,10.477a3.335,3.335,0,0,1-3.119,5.3L92.018,38.868a3.321,3.321,0,0,0-3.756,2.826s0,0,0,0l-2.817,19.8a3.332,3.332,0,0,0,2.814,3.773h0l12.909,1.853a3.338,3.338,0,0,1,1.523,5.967l-10.43,7.857a3.343,3.343,0,0,0-.664,4.667l11.947,16a3.309,3.309,0,0,0,4.646.667l10.434-7.857a3.309,3.309,0,0,1,4.645.673,3.343,3.343,0,0,1,.628,2.463l-1.842,12.967a3.331,3.331,0,0,0,2.813,3.773h0l19.713,2.83a3.66,3.66,0,0,0,.468.03,3.323,3.323,0,0,0,3.289-2.86l1.842-12.967a3.314,3.314,0,0,1,5.94-1.53l7.825,10.477a3.309,3.309,0,0,0,4.646.667l15.929-12a3.343,3.343,0,0,0,.664-4.667L177.366,83.8a3.288,3.288,0,0,1-.2-3.7,3.218,3.218,0,0,1,3.319-1.6l12.909,1.85a3.321,3.321,0,0,0,3.757-2.826h0l2.814-19.8A3.331,3.331,0,0,0,197.152,53.951ZM60.74,127.907a62.737,62.737,0,0,0,5.671,4.15,16.259,16.259,0,0,1,6.687,8.53l-7.118,7.137-6.893-4.773a6.638,6.638,0,0,0-10.261,4.117l-1.739,8.323H39.2l-1.739-8.31A6.626,6.626,0,0,0,27.2,142.964l-6.9,4.76-6.046-6.06,4.749-6.92a6.667,6.667,0,0,0-4.1-10.31l-8.273-1.75v-7.92l8.273-1.75a6.679,6.679,0,0,0,4.1-10.29l-4.752-6.94,6.046-6.06L27.2,94.5a6.638,6.638,0,0,0,10.258-4.12l.581-2.773a63.714,63.714,0,0,0,2.632,11.3,20,20,0,1,0,20.068,29ZM191.032,73.271l-9.624-1.38a10,10,0,0,0-9.372,15.9l5.831,7.81-10.62,8-5.834-7.807a9.948,9.948,0,0,0-17.821,4.583l-1.344,9.68-13.138-1.887,1.374-9.667a9.954,9.954,0,0,0-15.83-9.417l-7.775,5.857L98.914,84.277l7.772-5.86a10.008,10.008,0,0,0-4.563-17.9L92.5,59.137l1.878-13.2L104,47.321a10,10,0,0,0,9.375-15.9L107.526,23.6l10.62-8,5.834,7.81A9.948,9.948,0,0,0,141.8,18.831l1.374-9.667,13.138,1.883-1.374,9.667a9.954,9.954,0,0,0,15.83,9.413l7.775-5.857,7.965,10.667-7.775,5.86A10.008,10.008,0,0,0,183.3,58.7l9.624,1.38Z" transform="translate(0 -2.057)"/>
    <circle cx="143" cy="57" r="24"/>
</svg>
